<?xml version="1.0" encoding="UTF-8"?>
<!-- Generator: Adobe Illustrator 16.0.0, SVG Export Plug-In . SVG Version: 6.00 Build 0)  -->
<!DOCTYPE svg PUBLIC "-//W3C//DTD SVG 1.1//EN" "http://www.w3.org/Graphics/SVG/1.1/DTD/svg11.dtd">
<svg version="1.1" id="Layer_1" xmlns="http://www.w3.org/2000/svg" xmlns:xlink="http://www.w3.org/1999/xlink" x="0px" y="0px" width="708.66px" height="708.66px" viewBox="0 0 708.66 708.66" enable-background="new 0 0 708.66 708.66" xml:space="preserve">
<path fill="none" d="M394.93,230.36c-0.837,2.138-1.807,4.335-3.055,6.483c0.021,0.437,0.042,0.898,0.058,1.387l8.34-2.642  c23.724-7.58,34.851-10.96,38.101-10.96c2.469,0,4.552,0.567,6.563,1.115c2.114,0.575,4.113,1.119,6.842,1.118  c4.17,0,11.208-5.898,11.207-8.655c0-0.128-0.01-0.213-0.01-0.246l0.003-0.008c-0.314-0.35-1.689-0.918-2.61-1.298  c-2.165-0.889-4.861-1.996-7.06-4.379c-3.134-3.397-3.507-7.457-3.779-10.424c-0.094-0.989-0.23-2.375-0.473-2.974  c-2.088-0.814-8.907-0.248-10.967,0.712c-0.265,0.321-0.676,0.815-0.676,0.815c-4.616,5.661-18.667,22.886-42.463,30.021  L394.93,230.36z"/>
<path fill="none" d="M254.5,201.08c-0.163,2.178-0.347,4.644-1.522,6.798c-1.176,2.161-3.222,3.698-5.198,5.183  c-1.946,1.463-4.153,3.122-4.153,4.506c0,3.61,6.882,6.184,9.694,6.44c1.455,0.131,5.277-0.583,7.809-1.055  c2.909-0.544,4.76-0.877,6.153-0.877c1.811,0,6.693,1.464,37.579,11.766c6.461,2.154,12.675,4.228,16.848,5.581l0.047-1.623  c-1.223-2.568-1.817-5.043-2.168-7.041c-0.605-0.083-1.403-0.191-1.403-0.191l-0.042-0.005l-0.216,0.88  c-2.913-0.714-5.651-1.5-8.231-2.343c-1.01-0.283-2.023-0.628-3.026-1.046c-23.038-8.34-32.229-21.311-36.964-27.997l-1.752-2.403  c-4.124-5.223-11.486-1.511-12.312-1.071C254.858,196.999,254.682,198.635,254.5,201.08z"/>
<path fill="none" d="M280.71,272.226c-3.637,1.119-11.474,0.93-19.87,0.618l-3.454-0.103c-1.789,0-7.305,2.107-9.941,6.19  c0.856,0.572,2.505,1.282,3.502,1.703c2.811,1.191,5.718,2.424,7.137,5.024c0.758,1.39,0.947,2.938,0.947,4.651  c0,0.801-0.042,1.637-0.085,2.509c-0.04,0.867-0.087,1.801-0.087,2.72c0,2.022,0.22,3.969,1.178,4.975  c1.059,1.113,3.308,1.348,5.01,1.348c5.002,0,12.611-10.338,16.572-15.406c2.011-2.574,4.093-4.64,5.327-5.772  c3.032-2.778,12.836-6.917,28.623-13.404l10.379-3.481c-1.104-1.7-2.199-3.208-2.79-5.091  C311.856,262.916,284.203,271.149,280.71,272.226z"/>
<path fill="none" d="M310.683,218.809c0.508,0.179,13.121,2.707,13.121,2.707c1.94,0.27,5.033,2.249,5.333,4.183  c0,0-0.412,6.151,1.547,9.843c1.957,3.69,14.772,6.282,25.654,6.282c11.035,0,23.668-3.493,25.961-7.759  c1.716-3.184,5.825-13.286,5.825-13.286c0.636-1.752,2.295-2.534,4.916-2.534c9.271,0,13.764-1.903,13.765-26.528  c0-18.359-5.013-31.402-6.296-34.439c-8.301-8.074-27.575-27.194-43.853-27.194c-7.991,0-21.397,5.146-32.242,9.729  c-11.71,4.947-19.124,13.884-20.983,16.862c-0.963,3.166-4.276,15.244-4.276,31.852  C299.156,210.535,304.089,216.218,310.683,218.809z M374.781,191.471c9.227,0,15.119,7.173,15.119,7.173s-1.022,3.587-4.868,6.664  c-3.844,3.073-9.483,5.124-9.483,5.124s-5.123-1.538-9.479-3.845c-4.357-2.305-5.894-8.198-5.894-8.198  S365.558,191.471,374.781,191.471z M354.173,217.945c0,0,8.281,5.813,9.533,8.05c1.252,2.235,1.699,8.273,1.699,8.273  s-4.159,0.536-5.68,0c-1.521-0.537-3.178-2.103-5.014-2.103c-1.837,0-3.136,1.389-4.568,1.97c-1.434,0.579-7.519,0.4-7.519,0.4  s0.761-5.275,1.744-7.959C345.352,223.893,354.173,217.945,354.173,217.945z M331.925,191.705c10.548,0,14.387,6.809,14.387,6.809  s-2.524,5.558-4.718,7.606c-2.192,2.048-10.055,4.498-10.055,4.498s-6.423-2.188-8.851-3.805c-2.426-1.616-5.34-8.336-5.34-8.336  S321.379,191.706,331.925,191.705z"/>
<path fill="none" d="M382.49,263.955c6.295,3.235,12.869,5.837,13.989,6.317c1.631,0.701,6.984,1.659,9.592,1.659  c1.581,0,10.604,6.734,20.211,16.419c5.066,5.112,7.473,10.542,13.309,10.543c3.354,0,6.634-2.39,6.702-3.161  c0.065-0.77-1.66-2.033-1.66-3.507c0-0.613,2.01-6.249,2.428-6.797c1.2-1.568,1.436-1.183,4.553-3.809  c2.196-1.847,6.315-5.564,5.597-6.665c-4.637-7.093-30.705-3.778-32.24-4.13c-7.138-1.636-18.052-4.287-30.846-9.71l-6.707-2.25  C386.315,261.012,384.285,262.026,382.49,263.955z"/>
<path fill="none" d="M331.156,249.402c0.5,5.238,0.908,7.635,3.865,10.727c3.723,3.89,10.231,5.14,21.2,5.14  c9.54,0,16.181-2.335,20.538-6.948c3.318-3.513,3.741-3.94,4.365-8.169c-5.114,4.241-14.899,5.075-25.107,5.075  C343.803,255.227,336.037,254.176,331.156,249.402z"/>
<path fill="#010101" d="M251.474,188.766c-5.144,2.742-5.544,8.108-5.808,11.656c-0.082,1.091-0.204,2.74-0.465,3.217  c-0.294,0.501-1.77,1.608-2.745,2.342c-3.245,2.438-7.688,5.779-7.688,11.586c0,10.211,12.19,14.756,17.75,15.262  c2.677,0.244,6.522-0.476,10.238-1.17c1.514-0.283,3.489-0.648,4.298-0.705c3.192,0.681,22.261,7.04,35.002,11.289  c8.267,2.758,15.581,5.198,19.511,6.434l0.006,0.131c-8.702,3.359-38.934,13.557-43.469,14.949  c-2.504,0.772-12.989,0.383-16.937,0.234l-3.782-0.109c-4.384,0-12.965,3.29-17.459,10.348c-1.224,1.922-1.613,3.642-1.613,5.057  c0,0.859,0.145,1.605,0.334,2.214c1.269,4.081,5.468,5.861,8.842,7.288c0.84,0.356,1.995,0.851,2.669,1.231  c0.002,0.091,0.013,0.133,0.013,0.237c0,0.629-0.042,1.46-0.074,2.131c-0.044,0.932-0.096,1.977-0.096,3.082  c0,3.631,0.303,9.266,3.377,12.493c2.588,2.717,6.994,3.12,11.985,3.12c9.322,0,17.592-11.355,23.862-19.381  c1.48-1.894,2.884-4.026,3.705-4.489c2.807-1.578,15.691-7.537,25.182-11.437l15.879-5.411c5.608,3.279,12.014,4.29,22.344,4.29  c7.726,0,14.274-1.348,19.59-4.003c5.263,2.714,16.681,8.585,18.559,9.39c2.687,1.151,7.381,2.069,10.981,2.215  c2.942,1.788,14.671,12.713,21.875,21.161c4.45,5.227,10.379,5.111,12.326,5.073l0.3-0.006c6.38,0,13.023-3.657,15.449-8.51  c0.711-1.426,0.961-2.793,0.961-4.044c-0.001-1.821-0.522-3.391-0.899-4.513c0,0-0.062-0.208-0.108-0.378  c0.677-0.632,1.698-1.495,2.523-2.19c3.87-3.257,8.259-6.948,9.6-11.237c0.291-0.937,0.436-1.871,0.436-2.785  c0-1.8-0.561-3.519-1.655-5.01c-4.805-6.535-19.367-7.848-41.305-7.848c-6.142,0-15.988-4.174-27.388-9.006l-6.523-2.738  c0.183-0.867,0.329-1.724,0.45-2.567l11.462-3.63c11.291-3.609,32.319-10.326,35.481-10.542c1.206,0.001,2.51,0.355,4.158,0.805  c2.341,0.637,5.256,1.431,9.167,1.43c8.287,0,20.066-9.058,20.066-17.514c0-6.408-5.076-8.496-8.108-9.742  c-1.568-0.646-3.048-1.253-3.918-2.197c-1.024-1.109-1.239-2.714-1.469-5.227c-0.234-2.566-0.503-5.475-2.475-7.94  c-1.667-2.081-4.521-3.205-8.729-3.437c-3.618-0.201-12.071,0.365-15.097,3.389l-1.503,1.756c-2.508,3.076-8.093,9.917-16.72,16.276  c1.562-5.865,1.836-12.699,1.835-19.367c0-23.079-7.148-38.296-7.455-38.932c-0.218-0.46-0.517-0.878-0.882-1.238  c-3.135-3.102-31.216-30.321-50.668-30.321c-33.217,0-59.354,28.976-60.453,30.21c-0.384,0.433-0.68,0.937-0.871,1.483  c-0.205,0.589-5.035,14.671-5.034,35.607c-0.001,9.34,0.867,16.844,2.657,22.8c-8.585-5.902-13.043-12.184-16.021-16.388  l-2.029-2.774C268.806,184.437,258.742,184.891,251.474,188.766z M315.569,267.28c-15.786,6.487-25.591,10.626-28.623,13.404  c-1.234,1.132-3.316,3.198-5.327,5.772c-3.96,5.067-11.569,15.405-16.572,15.406c-1.702,0-3.951-0.234-5.01-1.348  c-0.958-1.006-1.179-2.953-1.178-4.975c0-0.919,0.047-1.853,0.087-2.72c0.044-0.873,0.085-1.708,0.085-2.509  c0-1.714-0.189-3.261-0.947-4.651c-1.419-2.601-4.327-3.833-7.137-5.024c-0.998-0.421-2.646-1.131-3.502-1.703  c2.636-4.083,8.152-6.19,9.941-6.19l3.454,0.103c8.396,0.312,16.232,0.5,19.87-0.618c3.493-1.076,31.146-9.31,42.449-13.518  c0.59,1.882,1.686,3.391,2.79,5.091L315.569,267.28z M376.76,258.321c-4.357,4.612-10.998,6.948-20.538,6.948  c-10.969,0-17.478-1.25-21.2-5.14c-2.958-3.092-3.365-5.488-3.865-10.727c4.881,4.774,12.646,5.825,24.861,5.825  c10.208,0,19.993-0.834,25.107-5.075C380.501,254.381,380.078,254.808,376.76,258.321z M394.124,261.115  c12.794,5.424,23.708,8.074,30.846,9.71c1.535,0.352,27.604-2.963,32.24,4.13c0.719,1.101-3.4,4.818-5.597,6.665  c-3.117,2.626-3.353,2.241-4.553,3.809c-0.418,0.548-2.428,6.184-2.428,6.797c0,1.474,1.726,2.738,1.66,3.507  c-0.068,0.771-3.349,3.161-6.702,3.161c-5.836-0.001-8.242-5.432-13.309-10.543c-9.606-9.685-18.63-16.419-20.211-16.419  c-2.607,0-7.961-0.958-9.592-1.659c-1.12-0.48-7.694-3.083-13.989-6.317c1.795-1.928,3.825-2.942,4.927-5.089L394.124,261.115z   M437.414,200.404c0,0,0.411-0.495,0.676-0.815c2.06-0.96,8.879-1.526,10.967-0.712c0.242,0.598,0.379,1.984,0.473,2.974  c0.272,2.967,0.646,7.026,3.779,10.424c2.198,2.383,4.895,3.491,7.06,4.379c0.921,0.38,2.296,0.948,2.61,1.298l-0.003,0.008  c0,0.033,0.01,0.118,0.01,0.246c0.001,2.757-7.037,8.655-11.207,8.655c-2.729,0-4.728-0.543-6.842-1.118  c-2.012-0.548-4.095-1.115-6.563-1.115c-3.25,0-14.377,3.381-38.101,10.96l-8.34,2.642c-0.016-0.489-0.037-0.95-0.058-1.387  c1.248-2.148,2.218-4.346,3.055-6.483l0.021,0.064C418.747,223.29,432.798,206.065,437.414,200.404z M303.431,156.674  c1.859-2.979,9.273-11.915,20.983-16.862c10.844-4.583,24.251-9.729,32.242-9.729c16.277,0,35.552,19.121,43.853,27.194  c1.283,3.037,6.296,16.08,6.296,34.439c-0.001,24.625-4.493,26.527-13.765,26.528c-2.621,0-4.28,0.782-4.916,2.534  c0,0-4.109,10.103-5.825,13.286c-2.293,4.266-14.926,7.759-25.961,7.759c-10.882,0-23.698-2.592-25.654-6.282  c-1.958-3.691-1.547-9.843-1.547-9.843c-0.3-1.934-3.393-3.913-5.333-4.183c0,0-12.613-2.528-13.121-2.707  c-6.593-2.591-11.527-8.274-11.528-30.283C299.155,171.917,302.468,159.84,303.431,156.674z M267.954,197.653l1.752,2.403  c4.734,6.686,13.926,19.657,36.964,27.997c1.003,0.418,2.016,0.764,3.026,1.046c2.58,0.843,5.318,1.629,8.231,2.343l0.216-0.88  l0.042,0.005c0,0,0.798,0.108,1.403,0.191c0.351,1.997,0.945,4.472,2.168,7.041l-0.047,1.623  c-4.173-1.353-10.387-3.426-16.848-5.581c-30.885-10.302-35.768-11.766-37.579-11.766c-1.393,0-3.244,0.333-6.153,0.877  c-2.531,0.473-6.354,1.187-7.809,1.055c-2.812-0.256-9.694-2.83-9.694-6.44c0-1.384,2.207-3.043,4.153-4.506  c1.976-1.485,4.022-3.022,5.198-5.183c1.176-2.155,1.36-4.62,1.522-6.798c0.182-2.445,0.358-4.081,1.142-4.499  C256.468,196.142,263.83,192.43,267.954,197.653z"/>
<path fill="#010101" d="M366.07,206.587c4.355,2.307,9.479,3.845,9.479,3.845s5.64-2.051,9.483-5.124  c3.846-3.077,4.868-6.664,4.868-6.664s-5.893-7.174-15.119-7.173c-9.224,0-14.604,6.919-14.604,6.919  S361.713,204.282,366.07,206.587z"/>
<path fill="#010101" d="M322.688,206.813c2.427,1.617,8.851,3.805,8.851,3.805s7.863-2.45,10.055-4.498  c2.194-2.049,4.718-7.606,4.718-7.606s-3.838-6.809-14.387-6.809c-10.546,0-14.577,6.772-14.577,6.772  S320.262,205.198,322.688,206.813z"/>
<path fill="#010101" d="M342.625,234.535c0,0,6.084,0.179,7.519-0.4c1.432-0.581,2.731-1.97,4.568-1.97  c1.836,0,3.493,1.566,5.014,2.103c1.521,0.536,5.68,0,5.68,0s-0.447-6.038-1.699-8.273c-1.252-2.237-9.533-8.05-9.533-8.05  s-8.821,5.948-9.804,8.63C343.386,229.259,342.625,234.535,342.625,234.535z"/>
<polygon fill="none" stroke="#1F1A17" stroke-width="9" stroke-linecap="round" stroke-linejoin="round" stroke-miterlimit="10" points="  53.501,354.9 354.34,653.727 652.678,354.9 354.339,56.558 "/>
<path fill="none" stroke="#010101" stroke-width="9" d="M337.085,25.315L355.082,7.32l13.877,13.877 M337.085,25.315"/>
<path fill="none" stroke="#010101" stroke-width="9" d="M288.244,74.156l30.851-30.852 M288.244,74.156"/>
<path fill="none" stroke="#010101" stroke-width="9" d="M239.58,122.82l30.741-30.743 M239.58,122.82"/>
<path fill="none" stroke="#010101" stroke-width="9" d="M190.989,171.412l30.968-30.968 M190.989,171.412"/>
<path fill="none" stroke="#010101" stroke-width="9" d="M142.396,220.003l30.856-30.853 M142.396,220.003"/>
<path fill="none" stroke="#010101" stroke-width="9" d="M93.864,268.537l30.516-30.516 M93.864,268.537"/>
<path fill="none" stroke="#010101" stroke-width="9" d="M45.219,317.183l30.684-30.684 M45.219,317.183"/>
<path fill="none" stroke="#010101" stroke-width="9" d="M37.068,385.322L7.088,355.336l20.334-20.357 M37.068,385.322"/>
<path fill="none" stroke="#010101" stroke-width="9" d="M85.603,433.854l-30.518-30.519 M85.603,433.854"/>
<path fill="none" stroke="#010101" stroke-width="9" d="M134.134,482.388l-30.682-30.685 M134.134,482.388"/>
<path fill="none" stroke="#010101" stroke-width="9" d="M183.065,531.316l-31.025-31.022 M183.065,531.316"/>
<path fill="none" stroke="#010101" stroke-width="9" d="M231.601,579.853l-30.912-30.909 M231.601,579.853"/>
<path fill="none" stroke="#010101" stroke-width="9" d="M280.191,628.442l-30.856-30.856 M280.191,628.442"/>
<path fill="none" stroke="#010101" stroke-width="9" d="M328.614,676.866l-30.966-30.967 M328.614,676.866"/>
<path fill="none" stroke="#010101" stroke-width="9" d="M381.468,673.955c-15.111,15.111-27.886,27.881-27.886,27.881l-7.062-7.063   M381.468,673.955"/>
<path fill="none" stroke="#010101" stroke-width="9" d="M430.17,625.252c0,0-14.519,14.52-30.915,30.914 M430.17,625.252"/>
<path fill="none" stroke="#010101" stroke-width="9" d="M478.759,576.664l-31.021,31.021 M478.759,576.664"/>
<path fill="none" stroke="#010101" stroke-width="9" d="M527.236,528.184l-30.965,30.968 M527.236,528.184"/>
<path fill="none" stroke="#010101" stroke-width="9" d="M575.718,479.701l-30.52,30.521 M575.718,479.701"/>
<path fill="none" stroke="#010101" stroke-width="9" d="M624.701,430.719l-30.915,30.914 M624.701,430.719"/>
<path fill="none" stroke="#010101" stroke-width="9" d="M673.291,382.129l-30.967,30.964 M673.291,382.129"/>
<path fill="none" stroke="#010101" stroke-width="9" d="M678.804,331.042c14.276,14.281,22.772,22.792,22.772,22.792l-10.717,10.723   M678.804,331.042"/>
<path fill="none" stroke="#010101" stroke-width="9" d="M630.041,282.282c11.186,11.184,21.511,21.507,30.635,30.632   M630.041,282.282"/>
<path fill="none" stroke="#010101" stroke-width="9" d="M581.112,233.353c10.683,10.682,21.09,21.089,31.028,31.027   M581.112,233.353"/>
<path fill="none" stroke="#010101" stroke-width="9" d="M532.579,184.819c10.382,10.381,20.775,20.776,31.023,31.022   M532.579,184.819"/>
<path fill="none" stroke="#010101" stroke-width="9" d="M483.873,136.113c10.17,10.17,20.627,20.628,31.193,31.195 M483.873,136.113  "/>
<path fill="none" stroke="#010101" stroke-width="9" d="M435.627,87.868c9.654,9.653,20.018,20.017,30.853,30.852 M435.627,87.868"/>
<path fill="none" stroke="#010101" stroke-width="9" d="M387.084,39.325c8.013,8.012,18.36,18.36,30.404,30.404 M387.084,39.325"/>
<path fill="#010101" d="M370.95,563.51c3.497-4.162,5.247-8.967,5.247-14.417c0-5.476-1.793-9.971-5.371-13.488  c-3.581-3.518-8.171-5.275-13.764-5.275c-2.612,0-4.931,0.397-6.96,1.189c-2.03,0.794-3.812,2.053-5.349,3.778  c0.349-4.555,0.986-7.996,1.916-10.329c1.714-4.228,4.585-6.345,8.619-6.345c2.699,0,4.716,0.927,6.054,2.776  c0.78,1.141,1.173,2.188,1.173,3.14h12.36c-0.434-4.622-2.387-8.324-5.854-11.105c-3.473-2.779-8.127-4.172-13.972-4.172  c-4.051,0.001-7.526,0.855-10.432,2.563c-2.907,1.706-5.256,3.97-7.049,6.788c-2.083,3.303-3.487,7.438-4.208,12.406  c-0.404,2.796-0.608,6.421-0.607,10.877c0,7.599,1.459,13.806,4.38,18.61c3.756,6.161,9.594,9.243,17.515,9.241  C362.019,569.748,367.453,567.673,370.95,563.51z M345.113,549.818c0-3.853,1.216-6.643,3.647-8.372  c1.627-1.171,3.501-1.757,5.626-1.757c2.615,0,4.825,0.9,6.626,2.694c1.803,1.794,2.704,4.38,2.704,7.755  c0,3.032-0.792,5.498-2.373,7.398c-1.585,1.901-3.757,2.851-6.514,2.851c-2.82,0-5.142-0.984-6.973-2.952  C346.027,555.467,345.113,552.93,345.113,549.818z"/>
</svg>